{"title":"Ungli 2014 Hindi DvDScr x264 GOPI SAHI PDR","uid":11590729,"size":726682601,"categoryP":"video","categoryS":"movies","magnet":"?xt=urn:btih:6dc4728790b44ad5a6870fe7ac23d066fa4afc00&amp;dn=Ungli+2014+Hindi+DvDScr+x264+GOPI+SAHI+PDR&amp;tr=udp%3A%2F%2Ftracker.openbittorrent.com%3A80&amp;tr=udp%3A%2F%2Fopen.demonii.com%3A1337&amp;tr=udp%3A%2F%2Ftracker.coppersurfer.tk%3A6969&amp;tr=udp%3A%2F%2Fexodus.desync.com%3A6969","seeders":1,"leechers":0,"uploader":"jatt13","files":1,"time":1417230467,"description":"General\nUnique ID                      : 177499000678624829179215995325618630341 (0x858910659E5F294187AB6B0F87B0AEC5)\nComplete name                  : D:Ungli 2014 Hindi DvDScr x264 GOPI SAHI PDR.mkv\nFormat                         : Matroska\nFormat version                 : Version 4 / Version 2\nFile size                      : 693 MiB\nDuration                       : 1h 56mn\nOverall bit rate               : 831 Kbps\nMovie name                     : GOPI SAHI\nEncoded date                   : UTC 2014-11-29 14:45:07\nWriting application            : mkvmerge v6.5.0 ('Isn't she lovely') built on Oct 20 2013 12:50:05\nWriting library                : libebml v1.3.0 + libmatroska v1.4.1\n\nVideo\nID                             : 1\nFormat                         : MPEG-4 Visual\nFormat profile                 : Advanced Simple@L5\nFormat settings, BVOP          : Yes\nFormat settings, QPel          : No\nFormat settings, GMC           : No warppoints\nFormat settings, Matrix        : Default (H.263)\nCodec ID                       : V_MS/VFW/FOURCC / XVID\nCodec ID/Hint                  : XviD\nDuration                       : 1h 56mn\nBit rate                       : 719 Kbps\nWidth                          : 640 pixels\nHeight                         : 272 pixels\nDisplay aspect ratio           : 2.35:1\nFrame rate mode                : Constant\nFrame rate                     : 23.976 fps\nColor space                    : YUV\nChroma subsampling             : 4:2:0\nBit depth                      : 8 bits\nScan type                      : Progressive\nCompression mode               : Lossy\nBits/(Pixel*Frame)             : 0.172\nStream size                    : 599 MiB (86%)\nTitle                          : GOPI SAHI\nWriting library                : XviD 1.2.1 (UTC 2008-12-04)\nLanguage                       : him\nDefault                        : Yes\nForced                         : No\n\nAudio\nID                             : 2\nFormat                         : MPEG Audio\nFormat version                 : Version 1\nFormat profile                 : Layer 3\nMode                           : Joint stereo\nMode extension                 : MS Stereo\nCodec ID                       : A_MPEG/L3\nCodec ID/Hint                  : MP3\nDuration                       : 1h 56mn\nBit rate mode                  : Constant\nBit rate                       : 96.0 Kbps\nChannel(s)                     : 2 channels\nSampling rate                  : 32.0 KHz\nCompression mode               : Lossy\nStream size                    : 80.0 MiB (12%)\nTitle                          : GOPI SAHI\nWriting library                : LAME3.99r\nEncoding settings              : -m j -V 4 -q 2 -lowpass 15.1 -b 96\nLanguage                       : Hindi\nDefault                        : Yes\nForced                         : No\n[IMG] http://i.imgur.com/FOirJYd.jpg\n[IMG] http://i.imgur.com/kOO0Dq1.jpg\n[IMG] http://i.imgur.com/DN29Ey0.jpg","torrent":{"xt":"urn:btih:6dc4728790b44ad5a6870fe7ac23d066fa4afc00","amp;dn":"Ungli+2014+Hindi+DvDScr+x264+GOPI+SAHI+PDR","amp;tr":["udp%3A%2F%2Ftracker.openbittorrent.com%3A80","udp%3A%2F%2Fopen.demonii.com%3A1337","udp%3A%2F%2Ftracker.coppersurfer.tk%3A6969","udp%3A%2F%2Fexodus.desync.com%3A6969"],"infoHash":"6dc4728790b44ad5a6870fe7ac23d066fa4afc00","infoHashBuffer":{"type":"Buffer","data":[109,196,114,135,144,180,74,213,166,135,15,231,172,35,208,102,250,74,252,0]},"announce":[],"urlList":[]}}